<?xml version="1.0" encoding="utf-8"?>
<svg xmlns="http://www.w3.org/2000/svg" fill="none" height="32" viewBox="0 0 32 32" width="32">
<path d="M31.9997 15.9998C31.9997 24.8363 24.8363 31.9997 15.9998 31.9997C7.16337 31.9997 0 24.8363 0 15.9998C0 7.16337 7.16337 0 15.9998 0C24.8363 0 31.9997 7.16337 31.9997 15.9998Z" fill="white"/>
<path clip-rule="evenodd" d="M15.9998 31.1997C24.3945 31.1997 31.1997 24.3945 31.1997 15.9998C31.1997 7.60519 24.3945 0.799992 15.9998 0.799992C7.60519 0.799992 0.799992 7.60519 0.799992 15.9998C0.799992 24.3945 7.60519 31.1997 15.9998 31.1997ZM15.9998 31.9997C24.8363 31.9997 31.9997 24.8363 31.9997 15.9998C31.9997 7.16337 24.8363 0 15.9998 0C7.16337 0 0 7.16337 0 15.9998C0 24.8363 7.16337 31.9997 15.9998 31.9997Z" fill="#4CA3FF" fill-opacity="0.4" fill-rule="evenodd"/>
<path clip-rule="evenodd" d="M20.8019 14.3196L20.8015 14.3205C21.6358 15.3572 22.1344 16.6703 22.1344 18.0985C22.1344 19.5479 21.6209 20.8789 20.7641 21.9226L20.6903 22.0125L20.6708 21.8983C20.6541 21.8011 20.6346 21.7031 20.6119 21.6042C20.1831 19.7371 18.786 18.1361 16.4866 16.8397C14.9338 15.9667 14.045 14.9155 13.8117 13.7211C13.661 12.9488 13.773 12.173 13.9895 11.5086C14.206 10.8443 14.528 10.2878 14.8016 9.95278L14.8018 9.95255L15.6962 8.86861C15.8531 8.67853 16.1467 8.67853 16.3035 8.86861L20.8019 14.3196ZM22.2167 13.2367L22.2169 13.2363L16.2215 5.97122C16.107 5.83251 15.8927 5.83251 15.7782 5.97122L9.78277 13.2364L9.78294 13.2368L9.76343 13.2607C8.66016 14.6175 7.99992 16.3417 7.99992 18.2187C7.99992 22.59 11.5815 26.1338 15.9999 26.1338C20.4182 26.1338 23.9998 22.59 23.9998 18.2187C23.9998 16.3417 23.3395 14.6175 22.2363 13.2607L22.2167 13.2367ZM11.2173 14.2962L11.2175 14.2959L11.7538 13.6461L11.77 13.7661C11.7829 13.8611 11.7984 13.9566 11.8169 14.0526C12.1639 15.8567 13.4034 17.3611 15.4757 18.5262C17.277 19.5422 18.3258 20.7106 18.628 21.9919C18.7541 22.5267 18.7766 23.0528 18.722 23.5128L18.7186 23.5413L18.6926 23.5539C17.8796 23.9475 16.9656 24.1684 15.9997 24.1684C12.6116 24.1684 9.86491 21.4509 9.86491 18.0985C9.86491 16.6592 10.3712 15.3367 11.2173 14.2962Z" fill="#4CA3FF" fill-rule="evenodd"/>
</svg>